<svg width="356" height="100" viewBox="0 0 356 100" fill="none" xmlns="http://www.w3.org/2000/svg">
  <path
    d="M169.035 50.2046C173.465 46.5202 176.137 40.7968 175.574 34.4968C174.759 25.328 166.068 17.8608 156.857 17.8608H125.02V82.5483H156.857C166.068 82.5483 174.759 75.0952 175.574 65.9124C176.137 59.5983 173.465 53.8749 169.035 50.2046ZM133.457 26.2983H157.363C162.791 26.2983 167.207 30.714 167.207 36.1421C167.207 41.5702 162.791 45.9858 157.363 45.9858H133.457V26.2983ZM157.363 74.1108H133.457V54.4233H157.363C162.791 54.4233 167.207 58.839 167.207 64.2671C167.207 69.6952 162.791 74.1108 157.363 74.1108Z"
    fill="white"
  />
  <path
    d="M225.652 31.9228V38.4197C220.631 33.9056 213.825 31.3462 206.428 32.0212C194.602 33.104 184.913 42.5681 183.619 54.3806C181.945 69.6103 193.884 82.5478 208.777 82.5478C215.259 82.5478 221.166 80.0728 225.652 76.0509V82.5478H234.089V31.9228H225.652ZM208.777 74.1103C199.467 74.1103 191.902 66.5447 191.902 57.2353C191.902 47.9259 199.467 40.3603 208.777 40.3603C218.086 40.3603 225.652 47.9259 225.652 57.2353C225.652 66.5447 218.086 74.1103 208.777 74.1103Z"
    fill="white"
  />
  <path
    d="M346.771 17.8608V38.4202C341.751 33.9062 334.945 31.3468 327.548 32.0218C315.721 33.1046 306.032 42.5687 304.738 54.3812C303.065 69.6108 315.004 82.5483 329.896 82.5483C336.379 82.5483 342.285 80.0733 346.771 76.0515V82.5483H355.209V17.8608H346.771ZM329.896 74.1108C320.587 74.1108 313.021 66.5452 313.021 57.2358C313.021 47.9265 320.587 40.3608 329.896 40.3608C339.206 40.3608 346.771 47.9265 346.771 57.2358C346.771 66.5452 339.206 74.1108 329.896 74.1108Z"
    fill="white"
  />
  <path
    d="M272.423 31.951C265.561 31.6838 259.289 34.201 254.578 38.4338V31.9369H246.141V82.5619H254.578V57.7416C254.578 48.9526 261.089 41.2744 269.822 40.4447C279.848 39.5026 288.328 47.4057 288.328 57.2494V82.5619H296.766V57.8822C296.766 44.1713 286.12 32.4713 272.423 31.951Z"
    fill="white"
  />
  <path
    d="M92.8934 20.1875C91.4715 19.1406 89.8934 18.3281 88.159 17.7344C86.659 17.2188 85.0653 16.8906 83.3778 16.7188C83.2059 15.0312 82.8622 13.4375 82.3622 11.9531C81.7684 10.2344 80.9559 8.64062 79.9247 7.21875C79.409 6.51562 78.8465 5.82812 78.2215 5.20312C74.6903 1.6875 69.7997 0 64.0965 0C51.8153 0 35.8465 7.82812 21.8778 21.7812C12.5184 31.1406 5.51842 41.8438 2.15904 51.9063C-1.55971 63.0625 -0.450334 72.375 5.29967 78.125C5.89342 78.7188 6.53404 79.2344 7.20592 79.7344C8.62779 80.7812 10.2059 81.625 11.9403 82.2188C13.4247 82.7344 15.034 83.0781 16.7372 83.2656C16.909 84.9531 17.2684 86.5469 17.784 88.0469C18.3778 89.7656 19.2059 91.3438 20.2528 92.7656C20.7528 93.4375 21.2997 94.0938 21.8934 94.7031C25.409 98.2188 30.2684 100 36.0653 100C39.7372 100 43.784 99.2812 48.1122 97.8437C58.1747 94.4844 68.8778 87.4844 78.2372 78.125C98.6747 57.6875 105.956 32.9375 94.8153 21.7812C94.2215 21.1875 93.5809 20.6719 92.9247 20.1875H92.8934ZM71.5965 71.5C63.2528 79.8437 53.8465 86.0469 45.1434 88.9531C41.7997 90.0625 38.7372 90.625 36.0965 90.625C35.2215 90.625 34.3934 90.5469 33.6122 90.4219C31.4872 90.0938 29.7528 89.3125 28.5028 88.0625C28.2215 87.7812 27.9872 87.4531 27.7684 87.125C26.9247 85.9375 26.3778 84.4375 26.1434 82.6875C25.7684 79.9375 26.1278 76.5625 27.2528 72.7656C27.3778 72.3281 27.4872 71.8906 27.6434 71.4375C28.1278 70 28.7215 68.5312 29.3778 67.0625C30.409 64.7656 31.6434 62.4375 33.0653 60.1094C36.2215 54.9375 40.284 49.7812 45.0965 44.9688C50.1278 39.9375 55.284 35.9375 60.2528 32.8906C61.6434 30.375 62.7997 27.8906 63.5965 25.4844C64.3778 23.1562 64.6747 21.375 64.7528 20.125C56.0965 23.7031 46.909 29.8906 38.4715 38.3438C30.284 46.5156 23.909 55.7344 20.1903 64.6406C19.659 65.9219 19.1747 67.2031 18.7528 68.4688C18.659 68.75 18.5809 69.0156 18.5028 69.2969C18.0028 70.8594 17.6122 72.4062 17.3153 73.8906C15.5497 73.6406 14.0653 73.0625 12.8778 72.2031C12.5653 71.9687 12.2372 71.7656 11.9559 71.5C10.7059 70.25 9.94029 68.4844 9.61217 66.3594C9.12779 63.25 9.59654 59.3281 11.0809 54.875C13.9872 46.1562 20.1903 36.7656 28.534 28.4219C41.3778 15.5781 55.1122 9.3125 64.0184 9.3125C64.9403 9.3125 65.7997 9.39062 66.6122 9.53125C68.6903 9.875 70.409 10.6406 71.6122 11.8594C71.8934 12.1406 72.1434 12.4844 72.3778 12.8281C73.2215 14.0312 73.7528 15.5312 73.9872 17.2969C74.3465 20.0312 73.9872 23.375 72.8778 27.125C72.7372 27.5781 72.6278 28.0156 72.4715 28.4844C71.9872 29.9219 71.3934 31.375 70.7372 32.8438C69.7059 35.1562 68.4715 37.4687 67.0497 39.7969C63.8934 44.9687 59.8309 50.125 55.0184 54.9375C50.2059 59.75 45.0497 63.8125 39.8778 66.9688C38.4715 69.5 37.3153 72 36.5184 74.4219C35.7372 76.7812 35.4403 78.5781 35.3622 79.8438C44.2684 76.125 53.4715 69.75 61.659 61.5625C69.8309 53.3906 76.2059 44.1875 79.9247 35.2812C80.4559 34 80.9403 32.7031 81.3778 31.4375C81.4715 31.1562 81.5497 30.8906 81.6278 30.625C82.1278 29.0469 82.5184 27.5156 82.8153 26.0312C84.5809 26.2812 86.0653 26.8594 87.2528 27.7187C87.5653 27.9531 87.8934 28.1562 88.1747 28.4219C89.409 29.6562 90.1903 31.4219 90.5184 33.5781C91.8622 42.2656 85.7059 57.4219 71.5965 71.5156V71.5Z"
    fill="#8F8FFF"
  />
</svg>
