<svg xmlns="http://www.w3.org/2000/svg" width="126" height="64" viewBox="0 0 126 64" fill="none">
  <path d="M28 32.171L39.9101 44L46.9849 43.9575L34.8974 32.0305L47 20.0944L40.0167 20L28 32.171Z" fill="white"/>
  <path d="M25.1709 29L37 17.0897L36.9572 10.0151L25.0302 22.1024L13.0944 10L13 16.983L25.1709 29Z" fill="white"/>
  <path d="M22 31.829L10.0898 20L3.01511 20.0427L15.1025 31.9698L3 43.9058L9.98312 44L22 31.829Z" fill="white"/>
  <path d="M24.8292 35L13 46.91L13.0426 53.9849L24.9698 41.8976L36.9059 54L37 47.0167L24.8292 35Z" fill="white"/>
  <path d="M62.7174 34.7352C62.7174 38.7826 62.7174 40.9643 63.359 41.5336C63.878 42.0076 64.6717 42.2291 67.0533 42.2291C68.6718 42.2291 69.8624 42.1973 70.6261 41.3439C70.9926 40.9328 71.3588 40.047 71.4199 39.4466C71.4503 39.1619 71.5113 38.9719 71.7557 38.9719C71.9693 38.9719 72 39.1301 72 39.5098C72 39.8577 71.786 42.2291 71.542 43.1463C71.3588 43.8418 71.2059 44 69.6184 44C67.4198 44 65.832 43.9364 64.4581 43.905C63.0839 43.8418 61.9848 43.81 60.7327 43.81C60.397 43.81 59.725 43.81 58.9924 43.8418C58.2901 43.8418 57.4964 43.905 56.8855 43.905C56.4887 43.905 56.2747 43.81 56.2747 43.5889C56.2747 43.4307 56.3972 43.336 56.7634 43.336C57.2213 43.336 57.5878 43.2724 57.8625 43.2092C58.4733 43.0828 58.6259 42.3873 58.7481 41.4704C58.9006 40.1424 58.9006 37.6442 58.9006 34.7352V29.1699C58.9006 24.3636 58.9006 23.4781 58.8398 22.4664C58.7788 21.3913 58.5344 20.8854 57.5267 20.6639C57.2824 20.6007 56.9162 20.5691 56.5194 20.5691C56.1832 20.5691 56 20.506 56 20.2846C56 20.0632 56.2136 20 56.6719 20C58.1069 20 60.0305 20.0948 60.8549 20.0948C61.5879 20.0948 63.8166 20 65.0075 20C65.4351 20 65.6491 20.0632 65.6491 20.2846C65.6491 20.506 65.4655 20.5691 65.099 20.5691C64.7632 20.5691 64.2749 20.6007 63.9084 20.6639C63.0839 20.8222 62.8396 21.3597 62.7785 22.4664C62.7174 23.4781 62.7174 24.3636 62.7174 29.1699V34.7352Z" fill="white"/>
  <path d="M77.9254 41.524C74.8232 38.7817 74 35.2106 74 32.1175C74 29.949 74.6647 26.1862 77.7036 23.3801C79.983 21.2756 82.99 20 87.7065 20C89.6692 20 90.8402 20.1276 92.2967 20.3189C93.4995 20.4784 94.5124 20.7654 95.4619 20.861C95.8104 20.893 95.937 21.0523 95.937 21.2436C95.937 21.4988 95.8419 21.8814 95.7785 22.9974C95.7152 24.0498 95.747 25.8038 95.6837 26.4413C95.6519 26.9198 95.5886 27.1748 95.3038 27.1748C95.0505 27.1748 94.9871 26.9198 94.9871 26.4731C94.9556 25.4847 94.5442 24.3685 93.7525 23.5396C92.7081 22.4233 90.2392 21.5625 87.3269 21.5625C84.5728 21.5625 82.7682 22.2641 81.3758 23.5396C79.0649 25.6762 78.4632 28.7056 78.4632 31.7984C78.4632 39.3879 84.1932 43.1507 88.4346 43.1507C91.252 43.1507 92.9614 42.8315 94.2276 41.3648C94.7657 40.7589 95.1775 39.8342 95.3038 39.2601C95.3989 38.75 95.4619 38.6225 95.7152 38.6225C95.937 38.6225 96 38.8458 96 39.1009C96 39.4834 95.6204 42.2577 95.3038 43.342C95.1456 43.8841 95.019 44.0436 94.4809 44.2666C93.2147 44.7767 90.8087 45 88.7827 45C84.4462 45 80.8059 44.0436 77.9254 41.524Z" fill="white"/>
  <path d="M111.225 30.7301C112.276 32.2857 117.598 40.8887 118.419 41.9047C118.978 42.6032 119.47 42.9841 120.325 43.238C120.883 43.3968 121.277 43.4284 121.573 43.4284C121.803 43.4284 122 43.4922 122 43.6826C122 43.9046 121.737 44 121.376 44H120.39C119.602 44 117.006 44 114.477 43.9365C113.623 43.9046 113.36 43.8411 113.36 43.6192C113.36 43.4284 113.524 43.3333 113.82 43.2695C113.984 43.238 114.116 42.9522 113.886 42.5397C112.079 39.4285 110.206 36.2856 108.695 33.9048L103.833 41.4919C103.505 42 103.34 42.4763 103.373 42.8252C103.406 43.111 103.702 43.3014 103.997 43.3649C104.194 43.3968 104.49 43.4284 104.753 43.4284C104.95 43.4284 105.147 43.5238 105.147 43.7142C105.147 43.9365 104.917 44 104.49 44H103.899C103.702 44 101.632 43.9046 100.811 43.9046C100.186 43.9046 98.5769 44 98.0511 44H97.4927C97.1641 44 97 43.9046 97 43.7142C97 43.5238 97.1972 43.4284 97.4597 43.4284C97.6899 43.4284 98.1822 43.3968 98.6756 43.2695C99.628 43.016 100.252 42.4128 101.369 40.8887L107.644 32.2223L101.993 23.1748C101.205 21.9046 100.417 21.1428 99.2667 20.7936C98.741 20.6348 98.2156 20.5714 97.887 20.5714C97.6899 20.5714 97.5588 20.4761 97.5588 20.2539C97.5588 20.0634 97.7883 20 98.2156 20C99.0039 20 101.665 20.0952 103.209 20.0952C103.669 20.0952 105.509 20 106.724 20C107.184 20 107.381 20.0634 107.381 20.2858C107.381 20.508 107.184 20.5714 106.888 20.5714C106.691 20.5714 106.264 20.6031 106.001 20.6983C105.706 20.7936 105.607 21.0158 105.607 21.2062C105.607 21.3968 105.738 21.7776 105.936 22.1271C107.348 24.6666 108.827 26.9841 110.108 29.1426C111.061 27.7461 114.083 23.3334 114.576 22.4445C114.838 21.9998 114.937 21.492 114.937 21.2379C114.937 21.0158 114.707 20.7619 114.378 20.6665C114.05 20.5714 113.59 20.5714 113.327 20.5714C113.13 20.5714 112.933 20.508 112.933 20.2858C112.933 20.0952 113.163 20 113.623 20C114.904 20 116.284 20.0952 116.908 20.0952C117.565 20.0952 118.912 20 120.127 20C120.489 20 120.719 20.0952 120.719 20.2858C120.719 20.4761 120.522 20.5714 120.193 20.5714C119.865 20.5714 119.47 20.6348 119.01 20.7619C118.255 20.9523 117.598 21.8412 116.612 23.2382L111.225 30.7301Z" fill="white"/>
</svg>